<?xml version="1.0" standalone="no"?>
<!DOCTYPE svg PUBLIC "-//W3C//DTD SVG 20010904//EN"
 "http://www.w3.org/TR/2001/REC-SVG-20010904/DTD/svg10.dtd">
<svg version="1.0" xmlns="http://www.w3.org/2000/svg"
 width="152.000000pt" height="152.000000pt" viewBox="0 0 152.000000 152.000000"
 preserveAspectRatio="xMidYMid meet">

<g transform="translate(0.000000,152.000000) scale(0.100000,-0.100000)"
fill="#000000" stroke="none">
<path d="M0 760 l0 -760 760 0 760 0 0 760 0 760 -760 0 -760 0 0 -760z m866
553 c33 -11 67 -34 106 -73 68 -69 94 -138 85 -230 -5 -45 -3 -61 13 -85 39
-59 18 -148 -43 -185 -33 -21 -102 -26 -126 -11 -10 6 -23 2 -42 -12 -41 -30
-125 -35 -175 -10 -30 16 -53 19 -104 16 -62 -5 -67 -3 -104 29 -35 30 -40 40
-44 89 -4 48 -1 59 20 84 22 25 24 33 16 74 -23 123 65 272 186 315 56 20 152
19 212 -1z m-212 -632 c11 -12 25 -17 39 -13 19 5 20 3 9 -10 -10 -12 -10 -18
2 -27 12 -10 17 -9 28 8 16 27 40 27 56 0 11 -17 16 -18 28 -8 8 7 13 18 10
26 -3 7 1 13 11 13 9 0 24 7 34 16 12 11 27 13 53 9 20 -4 36 -11 36 -16 0
-11 -158 -446 -171 -471 -6 -12 -19 -18 -32 -16 -18 3 -34 37 -104 228 -46
124 -86 235 -89 247 -6 22 -4 22 62 32 6 0 19 -8 28 -18z"/>
<path d="M665 1246 c-112 -52 -165 -176 -120 -283 18 -43 18 -43 2 -43 -23 0
-50 -39 -50 -72 0 -36 32 -68 70 -68 14 0 38 13 55 30 17 17 31 30 32 28 1 -2
7 -15 14 -30 33 -78 162 -71 193 10 l9 24 29 -31 c18 -20 39 -31 55 -31 34 0
76 41 76 75 0 25 -25 58 -50 67 -11 3 -11 11 -2 38 7 18 12 56 12 84 -1 165
-174 273 -325 202z"/>
<path d="M636 655 c4 -8 11 -15 16 -15 6 0 5 6 -2 15 -7 8 -14 15 -16 15 -2 0
-1 -7 2 -15z"/>
<path d="M877 663 c-4 -3 -7 -11 -7 -17 0 -6 5 -5 12 2 6 6 9 14 7 17 -3 3 -9
2 -12 -2z"/>
<path d="M662 617 c-7 -8 -7 -18 -2 -27 8 -13 11 -13 25 1 14 13 14 17 2 27
-11 10 -17 9 -25 -1z"/>
<path d="M746 617 c-16 -12 -17 -14 -1 -27 14 -11 18 -11 31 2 13 12 13 16 1
26 -10 9 -18 9 -31 -1z"/>
<path d="M831 617 c-9 -11 -8 -17 5 -28 13 -11 17 -10 25 2 17 28 -9 51 -30
26z"/>
<path d="M700 576 c-10 -13 -10 -19 0 -32 12 -14 15 -14 29 0 14 15 14 17 0
32 -14 14 -17 14 -29 0z"/>
<path d="M790 576 c-10 -13 -10 -19 0 -32 12 -14 15 -14 29 0 14 15 14 17 0
32 -14 14 -17 14 -29 0z"/>
<path d="M743 524 c-9 -23 13 -40 32 -24 12 10 13 16 4 26 -15 18 -28 18 -36
-2z"/>
<path d="M825 520 c-3 -5 -1 -10 4 -10 6 0 11 5 11 10 0 6 -2 10 -4 10 -3 0
-8 -4 -11 -10z"/>
<path d="M706 492 c-7 -12 3 -42 14 -42 18 0 22 22 7 37 -9 9 -17 11 -21 5z"/>
<path d="M791 487 c-9 -11 -8 -17 4 -27 12 -10 16 -9 21 5 9 23 -10 40 -25 22z"/>
<path d="M744 439 c-9 -16 12 -33 31 -25 14 5 15 9 5 21 -15 18 -26 19 -36 4z"/>
<path d="M750 351 c0 -11 5 -23 10 -26 6 -3 10 1 10 9 0 9 0 19 1 23 0 4 -4 9
-10 11 -6 2 -11 -5 -11 -17z"/>
</g>
</svg>
